<?xml version="1.0" encoding="UTF-8" standalone="no"?>
<!DOCTYPE svg PUBLIC "-//W3C//DTD SVG 1.1//EN"
 "http://www.w3.org/Graphics/SVG/1.1/DTD/svg11.dtd">
<!-- Generated by graphviz version 2.44.0 (20200408.0750)
 -->
<!-- Pages: 1 -->
<svg width="1051pt" height="1341pt"
 viewBox="0.00 0.00 1051.00 1341.00" xmlns="http://www.w3.org/2000/svg" xmlns:xlink="http://www.w3.org/1999/xlink">
<g id="graph0" class="graph" transform="scale(1 1) rotate(0) translate(4 1337)">
<polygon fill="white" stroke="transparent" points="-4,4 -4,-1337 1047,-1337 1047,4 -4,4"/>
<g id="clust1" class="cluster">
<title>cluster2</title>
<polygon fill="none" stroke="black" points="8,-138 8,-277 308,-277 308,-138 8,-138"/>
</g>
<g id="clust2" class="cluster">
<title>cluster0</title>
<polygon fill="none" stroke="black" points="453,-465 453,-540 1023,-540 1023,-465 453,-465"/>
<text text-anchor="middle" x="738" y="-524.8" font-family="Times,serif" font-size="14.00">result</text>
</g>
<g id="clust3" class="cluster">
<title>cluster1</title>
<polygon fill="none" stroke="black" points="371,-371 371,-446 751,-446 751,-371 371,-371"/>
<text text-anchor="middle" x="561" y="-430.8" font-family="Times,serif" font-size="14.00">plan</text>
</g>
<!-- worker -->
<g id="node1" class="node">
<title>worker</title>
<polygon fill="#ad2946" stroke="#ad2946" points="469.5,-1260 414.5,-1260 414.5,-1224 469.5,-1224 469.5,-1260"/>
<text text-anchor="middle" x="442" y="-1238.3" font-family="Times,serif" font-size="14.00" fill="white">worker</text>
</g>
<!-- dequeueEvaluation -->
<g id="node2" class="node">
<title>dequeueEvaluation</title>
<polygon fill="#ad2946" stroke="#ad2946" points="411,-1187 291,-1187 291,-1151 411,-1151 411,-1187"/>
<text text-anchor="middle" x="351" y="-1165.3" font-family="Times,serif" font-size="14.00" fill="white">dequeueEvaluation</text>
</g>
<!-- worker&#45;&gt;dequeueEvaluation -->
<g id="edge1" class="edge">
<title>worker&#45;&gt;dequeueEvaluation</title>
<path fill="none" stroke="#ad2946" d="M419.97,-1223.81C408.23,-1214.66 393.63,-1203.26 380.88,-1193.32"/>
<polygon fill="#ad2946" stroke="#ad2946" points="382.86,-1190.42 372.83,-1187.03 378.56,-1195.94 382.86,-1190.42"/>
</g>
<!-- invokeScheduler -->
<g id="node3" class="node">
<title>invokeScheduler</title>
<polygon fill="#ad2946" stroke="#ad2946" points="498.5,-1041 391.5,-1041 391.5,-1005 498.5,-1005 498.5,-1041"/>
<text text-anchor="middle" x="445" y="-1019.3" font-family="Times,serif" font-size="14.00" fill="white">invokeScheduler</text>
</g>
<!-- worker&#45;&gt;invokeScheduler -->
<g id="edge2" class="edge">
<title>worker&#45;&gt;invokeScheduler</title>
<path fill="none" stroke="#ad2946" d="M446.12,-1223.84C452.72,-1194.11 464.3,-1131.08 458,-1078 456.95,-1069.15 454.96,-1059.65 452.85,-1051.13"/>
<polygon fill="#ad2946" stroke="#ad2946" points="456.2,-1050.1 450.27,-1041.32 449.43,-1051.88 456.2,-1050.1"/>
</g>
<!-- eval -->
<g id="node28" class="node">
<title>eval</title>
<polygon fill="#47841e" stroke="#47841e" points="413,-1114 377.31,-1096 413,-1078 448.69,-1096 413,-1114"/>
<text text-anchor="middle" x="413" y="-1092.3" font-family="Times,serif" font-size="14.00" fill="white">eval</text>
</g>
<!-- dequeueEvaluation&#45;&gt;eval -->
<g id="edge28" class="edge">
<title>dequeueEvaluation&#45;&gt;eval</title>
<path fill="none" stroke="#47841e" d="M366.01,-1150.81C375.03,-1140.48 386.55,-1127.29 395.92,-1116.56"/>
<polygon fill="#47841e" stroke="#47841e" points="398.65,-1118.75 402.59,-1108.92 393.38,-1114.15 398.65,-1118.75"/>
</g>
<!-- process -->
<g id="node4" class="node">
<title>process</title>
<polygon fill="#ad2946" stroke="#ad2946" points="473.5,-895 416.5,-895 416.5,-859 473.5,-859 473.5,-895"/>
<text text-anchor="middle" x="445" y="-873.3" font-family="Times,serif" font-size="14.00" fill="white">process</text>
</g>
<!-- invokeScheduler&#45;&gt;process -->
<g id="edge3" class="edge">
<title>invokeScheduler&#45;&gt;process</title>
<path fill="none" stroke="#ad2946" d="M445,-1004.92C445,-980.34 445,-934.75 445,-905.43"/>
<polygon fill="#ad2946" stroke="#ad2946" points="448.5,-905.06 445,-895.06 441.5,-905.06 448.5,-905.06"/>
</g>
<!-- scheduler -->
<g id="node29" class="node">
<title>scheduler</title>
<polygon fill="#47841e" stroke="#47841e" points="524,-968 461.49,-950 524,-932 586.51,-950 524,-968"/>
<text text-anchor="middle" x="524" y="-946.3" font-family="Times,serif" font-size="14.00" fill="white">scheduler</text>
</g>
<!-- invokeScheduler&#45;&gt;scheduler -->
<g id="edge31" class="edge">
<title>invokeScheduler&#45;&gt;scheduler</title>
<path fill="none" stroke="#47841e" d="M464.12,-1004.81C475.4,-994.68 489.73,-981.8 501.55,-971.18"/>
<polygon fill="#47841e" stroke="#47841e" points="504.16,-973.54 509.26,-964.25 499.48,-968.33 504.16,-973.54"/>
</g>
<!-- computeJobAllocs -->
<g id="node5" class="node">
<title>computeJobAllocs</title>
<polygon fill="#ad2946" stroke="#ad2946" points="627,-822 509,-822 509,-786 627,-786 627,-822"/>
<text text-anchor="middle" x="568" y="-800.3" font-family="Times,serif" font-size="14.00" fill="white">computeJobAllocs</text>
</g>
<!-- process&#45;&gt;computeJobAllocs -->
<g id="edge4" class="edge">
<title>process&#45;&gt;computeJobAllocs</title>
<path fill="none" stroke="#ad2946" d="M473.53,-859.53C490.09,-849.97 511.17,-837.8 529.22,-827.38"/>
<polygon fill="#ad2946" stroke="#ad2946" points="531.43,-830.15 538.34,-822.12 527.93,-824.09 531.43,-830.15"/>
</g>
<!-- CreateEval -->
<g id="node12" class="node">
<title>CreateEval</title>
<polygon fill="#ad2946" stroke="#ad2946" points="927.5,-415 850.5,-415 850.5,-379 927.5,-379 927.5,-415"/>
<text text-anchor="middle" x="889" y="-393.3" font-family="Times,serif" font-size="14.00" fill="white">CreateEval</text>
</g>
<!-- process&#45;&gt;CreateEval -->
<g id="edge11" class="edge">
<title>process&#45;&gt;CreateEval</title>
<path fill="none" stroke="#ad2946" d="M473.84,-875.65C593.3,-873.81 1043,-863.02 1043,-805 1043,-805 1043,-805 1043,-490 1043,-440.2 982.91,-416.72 937.81,-406.11"/>
<polygon fill="#ad2946" stroke="#ad2946" points="938.38,-402.65 927.86,-403.91 936.87,-409.48 938.38,-402.65"/>
</g>
<!-- SubmitPlan -->
<g id="node20" class="node">
<title>SubmitPlan</title>
<polygon fill="#ad2946" stroke="#ad2946" points="300,-509 220,-509 220,-473 300,-473 300,-509"/>
<text text-anchor="middle" x="260" y="-487.3" font-family="Times,serif" font-size="14.00" fill="white">SubmitPlan</text>
</g>
<!-- process&#45;&gt;SubmitPlan -->
<g id="edge19" class="edge">
<title>process&#45;&gt;SubmitPlan</title>
<path fill="none" stroke="#ad2946" d="M416.16,-876.38C367.66,-875.34 275,-865.45 275,-805 275,-805 275,-805 275,-584 275,-561.95 270.75,-537.31 266.78,-519.08"/>
<polygon fill="#ad2946" stroke="#ad2946" points="270.15,-518.12 264.5,-509.16 263.32,-519.69 270.15,-518.12"/>
</g>
<!-- reconciler.Compute -->
<g id="node6" class="node">
<title>reconciler.Compute</title>
<polygon fill="#ad2946" stroke="#ad2946" points="681,-749 557,-749 557,-713 681,-713 681,-749"/>
<text text-anchor="middle" x="619" y="-727.3" font-family="Times,serif" font-size="14.00" fill="white">reconciler.Compute</text>
</g>
<!-- computeJobAllocs&#45;&gt;reconciler.Compute -->
<g id="edge5" class="edge">
<title>computeJobAllocs&#45;&gt;reconciler.Compute</title>
<path fill="none" stroke="#ad2946" d="M580.35,-785.81C586.48,-777.27 594.02,-766.77 600.81,-757.32"/>
<polygon fill="#ad2946" stroke="#ad2946" points="603.78,-759.19 606.77,-749.03 598.09,-755.11 603.78,-759.19"/>
</g>
<!-- computeGroup -->
<g id="node7" class="node">
<title>computeGroup</title>
<polygon fill="#ad2946" stroke="#ad2946" points="686,-676 588,-676 588,-640 686,-640 686,-676"/>
<text text-anchor="middle" x="637" y="-654.3" font-family="Times,serif" font-size="14.00" fill="white">computeGroup</text>
</g>
<!-- reconciler.Compute&#45;&gt;computeGroup -->
<g id="edge6" class="edge">
<title>reconciler.Compute&#45;&gt;computeGroup</title>
<path fill="none" stroke="#ad2946" d="M623.36,-712.81C625.41,-704.7 627.91,-694.84 630.21,-685.78"/>
<polygon fill="#ad2946" stroke="#ad2946" points="633.62,-686.58 632.68,-676.03 626.83,-684.86 633.62,-686.58"/>
</g>
<!-- computeStop -->
<g id="node8" class="node">
<title>computeStop</title>
<polygon fill="#ad2946" stroke="#ad2946" points="562.5,-603 473.5,-603 473.5,-567 562.5,-567 562.5,-603"/>
<text text-anchor="middle" x="518" y="-581.3" font-family="Times,serif" font-size="14.00" fill="white">computeStop</text>
</g>
<!-- computeGroup&#45;&gt;computeStop -->
<g id="edge7" class="edge">
<title>computeGroup&#45;&gt;computeStop</title>
<path fill="none" stroke="#ad2946" d="M608.5,-639.99C592.57,-630.49 572.53,-618.54 555.36,-608.29"/>
<polygon fill="#ad2946" stroke="#ad2946" points="557.06,-605.23 546.68,-603.11 553.48,-611.24 557.06,-605.23"/>
</g>
<!-- handleDelayedLost -->
<g id="node10" class="node">
<title>handleDelayedLost</title>
<polygon fill="#ad2946" stroke="#ad2946" points="891,-603 769,-603 769,-567 891,-567 891,-603"/>
<text text-anchor="middle" x="830" y="-581.3" font-family="Times,serif" font-size="14.00" fill="white">handleDelayedLost</text>
</g>
<!-- computeGroup&#45;&gt;handleDelayedLost -->
<g id="edge9" class="edge">
<title>computeGroup&#45;&gt;handleDelayedLost</title>
<path fill="none" stroke="#ad2946" d="M683.23,-639.99C710.48,-629.97 745.15,-617.21 773.96,-606.62"/>
<polygon fill="#ad2946" stroke="#ad2946" points="775.3,-609.85 783.48,-603.11 772.89,-603.28 775.3,-609.85"/>
</g>
<!-- handleDelayedReschedules -->
<g id="node11" class="node">
<title>handleDelayedReschedules</title>
<polygon fill="#ad2946" stroke="#ad2946" points="745.5,-603 580.5,-603 580.5,-567 745.5,-567 745.5,-603"/>
<text text-anchor="middle" x="663" y="-581.3" font-family="Times,serif" font-size="14.00" fill="white">handleDelayedReschedules</text>
</g>
<!-- computeGroup&#45;&gt;handleDelayedReschedules -->
<g id="edge10" class="edge">
<title>computeGroup&#45;&gt;handleDelayedReschedules</title>
<path fill="none" stroke="#ad2946" d="M643.29,-639.81C646.3,-631.62 649.95,-621.62 653.3,-612.48"/>
<polygon fill="#ad2946" stroke="#ad2946" points="656.61,-613.62 656.76,-603.03 650.04,-611.22 656.61,-613.62"/>
</g>
<!-- markStop -->
<g id="node9" class="node">
<title>markStop</title>
<polygon fill="#ad2946" stroke="#ad2946" points="426,-509 356,-509 356,-473 426,-473 426,-509"/>
<text text-anchor="middle" x="391" y="-487.3" font-family="Times,serif" font-size="14.00" fill="white">markStop</text>
</g>
<!-- computeStop&#45;&gt;markStop -->
<g id="edge8" class="edge">
<title>computeStop&#45;&gt;markStop</title>
<path fill="none" stroke="#ad2946" d="M489.61,-567C476.94,-559.13 461.98,-549.45 449,-540 438.6,-532.43 427.62,-523.58 418.05,-515.56"/>
<polygon fill="#ad2946" stroke="#ad2946" points="420.27,-512.86 410.38,-509.06 415.75,-518.2 420.27,-512.86"/>
</g>
<!-- stop -->
<g id="node30" class="node">
<title>stop</title>
<polygon fill="#47841e" stroke="#47841e" points="497,-509 461.31,-491 497,-473 532.69,-491 497,-509"/>
<text text-anchor="middle" x="497" y="-487.3" font-family="Times,serif" font-size="14.00" fill="white">stop</text>
</g>
<!-- markStop&#45;&gt;stop -->
<g id="edge33" class="edge">
<title>markStop&#45;&gt;stop</title>
<path fill="none" stroke="#47841e" d="M426.2,-491C434.45,-491 442.71,-491 450.97,-491"/>
<polygon fill="#47841e" stroke="#47841e" points="451.04,-494.5 461.04,-491 451.04,-487.5 451.04,-494.5"/>
</g>
<!-- desiredFollowupEvals -->
<g id="node31" class="node">
<title>desiredFollowupEvals</title>
<polygon fill="#47841e" stroke="#47841e" points="889,-509 763.15,-491 889,-473 1014.85,-491 889,-509"/>
<text text-anchor="middle" x="889" y="-487.3" font-family="Times,serif" font-size="14.00" fill="white">desiredFollowupEvals</text>
</g>
<!-- handleDelayedLost&#45;&gt;desiredFollowupEvals -->
<g id="edge34" class="edge">
<title>handleDelayedLost&#45;&gt;desiredFollowupEvals</title>
<path fill="none" stroke="#47841e" d="M841.1,-566.7C850.19,-552.51 863.18,-532.26 873.33,-516.43"/>
<polygon fill="#47841e" stroke="#47841e" points="876.48,-518 878.94,-507.69 870.59,-514.22 876.48,-518"/>
</g>
<!-- handleDelayedReschedules&#45;&gt;desiredFollowupEvals -->
<g id="edge35" class="edge">
<title>handleDelayedReschedules&#45;&gt;desiredFollowupEvals</title>
<path fill="none" stroke="#47841e" d="M704.98,-566.91C745.99,-550.22 807.98,-524.98 848.48,-508.49"/>
<polygon fill="#47841e" stroke="#47841e" points="849.84,-511.72 857.78,-504.71 847.2,-505.24 849.84,-511.72"/>
</g>
<!-- attributeUpdates -->
<g id="node32" class="node">
<title>attributeUpdates</title>
<polygon fill="#47841e" stroke="#47841e" points="648,-509 550.64,-491 648,-473 745.36,-491 648,-509"/>
<text text-anchor="middle" x="648" y="-487.3" font-family="Times,serif" font-size="14.00" fill="white">attributeUpdates</text>
</g>
<!-- handleDelayedReschedules&#45;&gt;attributeUpdates -->
<g id="edge36" class="edge">
<title>handleDelayedReschedules&#45;&gt;attributeUpdates</title>
<path fill="none" stroke="#47841e" d="M660.18,-566.7C657.97,-553.16 654.87,-534.11 652.34,-518.64"/>
<polygon fill="#47841e" stroke="#47841e" points="655.77,-517.91 650.71,-508.61 648.86,-519.04 655.77,-517.91"/>
</g>
<!-- RPC Eval.Create -->
<g id="node13" class="node">
<title>RPC Eval.Create</title>
<polygon fill="#ad2946" stroke="#ad2946" points="891,-342 781,-342 781,-306 891,-306 891,-342"/>
<text text-anchor="middle" x="836" y="-320.3" font-family="Times,serif" font-size="14.00" fill="white">RPC Eval.Create</text>
</g>
<!-- CreateEval&#45;&gt;RPC Eval.Create -->
<g id="edge12" class="edge">
<title>CreateEval&#45;&gt;RPC Eval.Create</title>
<path fill="none" stroke="#ad2946" d="M876.17,-378.81C869.79,-370.27 861.95,-359.77 854.9,-350.32"/>
<polygon fill="#ad2946" stroke="#ad2946" points="857.5,-347.95 848.71,-342.03 851.89,-352.14 857.5,-347.95"/>
</g>
<!-- raft -->
<g id="node14" class="node">
<title>raft</title>
<polygon fill="#ad2946" stroke="#ad2946" points="453,-269 399,-269 399,-233 453,-233 453,-269"/>
<text text-anchor="middle" x="426" y="-247.3" font-family="Times,serif" font-size="14.00" fill="white">raft</text>
</g>
<!-- RPC Eval.Create&#45;&gt;raft -->
<g id="edge13" class="edge">
<title>RPC Eval.Create&#45;&gt;raft</title>
<path fill="none" stroke="#ad2946" d="M780.71,-313.42C695.91,-298.74 535.99,-271.05 463.46,-258.49"/>
<polygon fill="#ad2946" stroke="#ad2946" points="463.86,-255 453.41,-256.75 462.67,-261.9 463.86,-255"/>
</g>
<!-- handleUpsertedEval -->
<g id="node15" class="node">
<title>handleUpsertedEval</title>
<polygon fill="#ad2946" stroke="#ad2946" points="442,-182 316,-182 316,-146 442,-146 442,-182"/>
<text text-anchor="middle" x="379" y="-160.3" font-family="Times,serif" font-size="14.00" fill="white">handleUpsertedEval</text>
</g>
<!-- raft&#45;&gt;handleUpsertedEval -->
<g id="edge14" class="edge">
<title>raft&#45;&gt;handleUpsertedEval</title>
<path fill="none" stroke="#ad2946" d="M416.49,-232.8C409.86,-220.82 400.91,-204.62 393.41,-191.06"/>
<polygon fill="#ad2946" stroke="#ad2946" points="396.4,-189.23 388.5,-182.18 390.27,-192.62 396.4,-189.23"/>
</g>
<!-- UpsertPlanResults -->
<g id="node23" class="node">
<title>UpsertPlanResults</title>
<polygon fill="#ad2946" stroke="#ad2946" points="576,-182 460,-182 460,-146 576,-146 576,-182"/>
<text text-anchor="middle" x="518" y="-160.3" font-family="Times,serif" font-size="14.00" fill="white">UpsertPlanResults</text>
</g>
<!-- raft&#45;&gt;UpsertPlanResults -->
<g id="edge23" class="edge">
<title>raft&#45;&gt;UpsertPlanResults</title>
<path fill="none" stroke="#ad2946" d="M444.62,-232.8C458.21,-220.24 476.82,-203.05 491.89,-189.12"/>
<polygon fill="#ad2946" stroke="#ad2946" points="494.44,-191.53 499.41,-182.18 489.69,-186.39 494.44,-191.53"/>
</g>
<!-- evalbroker.processEnqueue -->
<g id="node16" class="node">
<title>evalbroker.processEnqueue</title>
<polygon fill="#ad2946" stroke="#ad2946" points="461.5,-109 296.5,-109 296.5,-73 461.5,-73 461.5,-109"/>
<text text-anchor="middle" x="379" y="-87.3" font-family="Times,serif" font-size="14.00" fill="white">evalbroker.processEnqueue</text>
</g>
<!-- handleUpsertedEval&#45;&gt;evalbroker.processEnqueue -->
<g id="edge15" class="edge">
<title>handleUpsertedEval&#45;&gt;evalbroker.processEnqueue</title>
<path fill="none" stroke="#ad2946" d="M379,-145.81C379,-137.79 379,-128.05 379,-119.07"/>
<polygon fill="#ad2946" stroke="#ad2946" points="382.5,-119.03 379,-109.03 375.5,-119.03 382.5,-119.03"/>
</g>
<!-- delayHeap.Push -->
<g id="node17" class="node">
<title>delayHeap.Push</title>
<polygon fill="#ad2946" stroke="#ad2946" points="431,-36 327,-36 327,0 431,0 431,-36"/>
<text text-anchor="middle" x="379" y="-14.3" font-family="Times,serif" font-size="14.00" fill="white">delayHeap.Push</text>
</g>
<!-- evalbroker.processEnqueue&#45;&gt;delayHeap.Push -->
<g id="edge16" class="edge">
<title>evalbroker.processEnqueue&#45;&gt;delayHeap.Push</title>
<path fill="none" stroke="#ad2946" d="M379,-72.81C379,-64.79 379,-55.05 379,-46.07"/>
<polygon fill="#ad2946" stroke="#ad2946" points="382.5,-46.03 379,-36.03 375.5,-46.03 382.5,-46.03"/>
</g>
<!-- runDelayedEvalsWatcher -->
<g id="node18" class="node">
<title>runDelayedEvalsWatcher</title>
<polygon fill="#ad2946" stroke="#ad2946" points="422.5,-1333 267.5,-1333 267.5,-1297 422.5,-1297 422.5,-1333"/>
<text text-anchor="middle" x="345" y="-1311.3" font-family="Times,serif" font-size="14.00" fill="white">runDelayedEvalsWatcher</text>
</g>
<!-- enqueueLocked -->
<g id="node19" class="node">
<title>enqueueLocked</title>
<polygon fill="#ad2946" stroke="#ad2946" points="396,-1260 294,-1260 294,-1224 396,-1224 396,-1260"/>
<text text-anchor="middle" x="345" y="-1238.3" font-family="Times,serif" font-size="14.00" fill="white">enqueueLocked</text>
</g>
<!-- runDelayedEvalsWatcher&#45;&gt;enqueueLocked -->
<g id="edge17" class="edge">
<title>runDelayedEvalsWatcher&#45;&gt;enqueueLocked</title>
<path fill="none" stroke="#ad2946" d="M345,-1296.81C345,-1288.79 345,-1279.05 345,-1270.07"/>
<polygon fill="#ad2946" stroke="#ad2946" points="348.5,-1270.03 345,-1260.03 341.5,-1270.03 348.5,-1270.03"/>
</g>
<!-- enqueueLocked&#45;&gt;dequeueEvaluation -->
<g id="edge18" class="edge">
<title>enqueueLocked&#45;&gt;dequeueEvaluation</title>
<path fill="none" stroke="#ad2946" d="M346.45,-1223.81C347.13,-1215.79 347.95,-1206.05 348.71,-1197.07"/>
<polygon fill="#ad2946" stroke="#ad2946" points="352.21,-1197.29 349.56,-1187.03 345.23,-1196.7 352.21,-1197.29"/>
</g>
<!-- applyPlan -->
<g id="node21" class="node">
<title>applyPlan</title>
<polygon fill="#ad2946" stroke="#ad2946" points="348.5,-415 277.5,-415 277.5,-379 348.5,-379 348.5,-415"/>
<text text-anchor="middle" x="313" y="-393.3" font-family="Times,serif" font-size="14.00" fill="white">applyPlan</text>
</g>
<!-- SubmitPlan&#45;&gt;applyPlan -->
<g id="edge20" class="edge">
<title>SubmitPlan&#45;&gt;applyPlan</title>
<path fill="none" stroke="#ad2946" d="M269.97,-472.7C277.89,-458.95 289.09,-439.5 298.08,-423.9"/>
<polygon fill="#ad2946" stroke="#ad2946" points="301.12,-425.64 303.08,-415.23 295.05,-422.14 301.12,-425.64"/>
</g>
<!-- applyPlan&#45;&gt;raft -->
<g id="edge22" class="edge">
<title>applyPlan&#45;&gt;raft</title>
<path fill="none" stroke="#ad2946" d="M339.08,-378.97C352.49,-369.28 368.41,-356.26 380,-342 395.57,-322.84 407.92,-297.55 415.89,-278.66"/>
<polygon fill="#ad2946" stroke="#ad2946" points="419.23,-279.75 419.75,-269.17 412.74,-277.11 419.23,-279.75"/>
</g>
<!-- evaluateNodePlan -->
<g id="node22" class="node">
<title>evaluateNodePlan</title>
<polygon fill="#ad2946" stroke="#ad2946" points="370.5,-342 255.5,-342 255.5,-306 370.5,-306 370.5,-342"/>
<text text-anchor="middle" x="313" y="-320.3" font-family="Times,serif" font-size="14.00" fill="white">evaluateNodePlan</text>
</g>
<!-- applyPlan&#45;&gt;evaluateNodePlan -->
<g id="edge21" class="edge">
<title>applyPlan&#45;&gt;evaluateNodePlan</title>
<path fill="none" stroke="#ad2946" d="M313,-378.81C313,-370.79 313,-361.05 313,-352.07"/>
<polygon fill="#ad2946" stroke="#ad2946" points="316.5,-352.03 313,-342.03 309.5,-352.03 316.5,-352.03"/>
</g>
<!-- if -->
<g id="node25" class="node">
<title>if</title>
<ellipse fill="#5b4d8b" stroke="#5b4d8b" cx="158" cy="-251" rx="141.88" ry="18"/>
<text text-anchor="middle" x="158" y="-247.3" font-family="Times,serif" font-size="14.00" fill="white">if NodeUpdate &amp;&amp; !NodeAllocation</text>
</g>
<!-- evaluateNodePlan&#45;&gt;if -->
<g id="edge27" class="edge">
<title>evaluateNodePlan&#45;&gt;if</title>
<path fill="none" stroke="#ad2946" d="M275.87,-305.99C259.67,-298.57 240.2,-289.65 221.79,-281.22"/>
<polygon fill="#ad2946" stroke="#ad2946" points="223.12,-277.98 212.57,-277 220.21,-284.34 223.12,-277.98"/>
</g>
<!-- upsertAllocsImpl -->
<g id="node24" class="node">
<title>upsertAllocsImpl</title>
<polygon fill="#ad2946" stroke="#ad2946" points="631.5,-109 520.5,-109 520.5,-73 631.5,-73 631.5,-109"/>
<text text-anchor="middle" x="576" y="-87.3" font-family="Times,serif" font-size="14.00" fill="white">upsertAllocsImpl</text>
</g>
<!-- UpsertPlanResults&#45;&gt;upsertAllocsImpl -->
<g id="edge24" class="edge">
<title>UpsertPlanResults&#45;&gt;upsertAllocsImpl</title>
<path fill="none" stroke="#ad2946" d="M532.04,-145.81C539.09,-137.18 547.77,-126.56 555.55,-117.03"/>
<polygon fill="#ad2946" stroke="#ad2946" points="558.47,-118.99 562.09,-109.03 553.05,-114.56 558.47,-118.99"/>
</g>
<!-- lost -->
<g id="node26" class="node">
<title>lost</title>
<ellipse fill="#5b4d8b" stroke="#5b4d8b" cx="127" cy="-164" rx="27" ry="18"/>
<text text-anchor="middle" x="127" y="-160.3" font-family="Times,serif" font-size="14.00" fill="white">lost</text>
</g>
<!-- if&#45;&gt;lost -->
<g id="edge25" class="edge">
<title>if&#45;&gt;lost</title>
<path fill="none" stroke="#5b4d8b" d="M151.73,-232.8C147.38,-220.89 141.52,-204.82 136.6,-191.31"/>
<polygon fill="#5b4d8b" stroke="#5b4d8b" points="139.77,-189.79 133.05,-181.6 133.19,-192.19 139.77,-189.79"/>
<text text-anchor="middle" x="147" y="-203.8" font-family="Times,serif" font-size="14.00" fill="#5b4d8b">t</text>
</g>
<!-- error -->
<g id="node27" class="node">
<title>error</title>
<ellipse fill="#5b4d8b" stroke="#5b4d8b" cx="200" cy="-164" rx="27.9" ry="18"/>
<text text-anchor="middle" x="200" y="-160.3" font-family="Times,serif" font-size="14.00" fill="white">error</text>
</g>
<!-- if&#45;&gt;error -->
<g id="edge26" class="edge">
<title>if&#45;&gt;error</title>
<path fill="none" stroke="#5b4d8b" d="M166.5,-232.8C172.48,-220.7 180.58,-204.29 187.32,-190.65"/>
<polygon fill="#5b4d8b" stroke="#5b4d8b" points="190.65,-191.83 191.94,-181.31 184.37,-188.73 190.65,-191.83"/>
<text text-anchor="middle" x="184.5" y="-203.8" font-family="Times,serif" font-size="14.00" fill="#5b4d8b">f</text>
</g>
<!-- eval&#45;&gt;worker -->
<g id="edge29" class="edge">
<title>eval&#45;&gt;worker</title>
<path fill="none" stroke="#47841e" d="M416.17,-1112.74C421.06,-1137.02 430.5,-1183.9 436.51,-1213.76"/>
<polygon fill="#47841e" stroke="#47841e" points="433.15,-1214.8 438.56,-1223.92 440.02,-1213.42 433.15,-1214.8"/>
</g>
<!-- eval&#45;&gt;invokeScheduler -->
<g id="edge30" class="edge">
<title>eval&#45;&gt;invokeScheduler</title>
<path fill="none" stroke="#47841e" d="M419.32,-1080.97C423.28,-1072.19 428.51,-1060.59 433.21,-1050.15"/>
<polygon fill="#47841e" stroke="#47841e" points="436.42,-1051.56 437.34,-1041 430.04,-1048.68 436.42,-1051.56"/>
</g>
<!-- scheduler&#45;&gt;process -->
<g id="edge32" class="edge">
<title>scheduler&#45;&gt;process</title>
<path fill="none" stroke="#47841e" d="M509.51,-935.98C498.96,-926.5 484.37,-913.38 471.73,-902.02"/>
<polygon fill="#47841e" stroke="#47841e" points="473.94,-899.31 464.16,-895.22 469.26,-904.51 473.94,-899.31"/>
</g>
<!-- NodeUpdate -->
<g id="node33" class="node">
<title>NodeUpdate</title>
<polygon fill="#47841e" stroke="#47841e" points="457,-415 378.74,-397 457,-379 535.26,-397 457,-415"/>
<text text-anchor="middle" x="457" y="-393.3" font-family="Times,serif" font-size="14.00" fill="white">NodeUpdate</text>
</g>
<!-- stop&#45;&gt;NodeUpdate -->
<g id="edge39" class="edge">
<title>stop&#45;&gt;NodeUpdate</title>
<path fill="none" stroke="#47841e" d="M490.92,-476.03C484.82,-461.99 475.29,-440.06 467.88,-423.02"/>
<polygon fill="#47841e" stroke="#47841e" points="471,-421.42 463.8,-413.65 464.58,-424.21 471,-421.42"/>
</g>
<!-- desiredFollowupEvals&#45;&gt;CreateEval -->
<g id="edge37" class="edge">
<title>desiredFollowupEvals&#45;&gt;CreateEval</title>
<path fill="none" stroke="#47841e" d="M889,-472.7C889,-459.46 889,-440.95 889,-425.66"/>
<polygon fill="#47841e" stroke="#47841e" points="892.5,-425.23 889,-415.23 885.5,-425.23 892.5,-425.23"/>
</g>
<!-- attributeUpdates&#45;&gt;process -->
<g id="edge38" class="edge">
<title>attributeUpdates&#45;&gt;process</title>
<path fill="none" stroke="#47841e" d="M542,-540C508.34,-553.49 496.46,-548.95 465,-567 454.88,-572.81 445,-572.33 445,-584 445,-805 445,-805 445,-805 445,-819.35 445,-835.33 445,-848.49"/>
<polygon fill="#47841e" stroke="#47841e" points="441.5,-848.78 445,-858.78 448.5,-848.78 441.5,-848.78"/>
</g>
<!-- NodeAllocation -->
<g id="node34" class="node">
<title>NodeAllocation</title>
<polygon fill="#47841e" stroke="#47841e" points="648,-415 553.15,-397 648,-379 742.85,-397 648,-415"/>
<text text-anchor="middle" x="648" y="-393.3" font-family="Times,serif" font-size="14.00" fill="white">NodeAllocation</text>
</g>
<!-- attributeUpdates&#45;&gt;NodeAllocation -->
<g id="edge40" class="edge">
<title>attributeUpdates&#45;&gt;NodeAllocation</title>
<path fill="none" stroke="#47841e" d="M648,-472.7C648,-459.46 648,-440.95 648,-425.66"/>
<polygon fill="#47841e" stroke="#47841e" points="651.5,-425.23 648,-415.23 644.5,-425.23 651.5,-425.23"/>
</g>
<!-- NodeUpdate&#45;&gt;process -->
<g id="edge41" class="edge">
<title>NodeUpdate&#45;&gt;process</title>
<path fill="none" stroke="#47841e" d="M371,-443.97C347.32,-459.52 328,-476.37 328,-490 328,-805 328,-805 328,-805 328,-842.36 372.14,-860.61 406.19,-869.13"/>
<polygon fill="#47841e" stroke="#47841e" points="405.85,-872.64 416.38,-871.48 407.42,-865.82 405.85,-872.64"/>
</g>
<!-- NodeUpdate&#45;&gt;evaluateNodePlan -->
<g id="edge42" class="edge">
<title>NodeUpdate&#45;&gt;evaluateNodePlan</title>
<path fill="none" stroke="#47841e" d="M406.3,-371C390.07,-363 372.26,-354.22 356.59,-346.49"/>
<polygon fill="#47841e" stroke="#47841e" points="358.11,-343.34 347.59,-342.06 355.02,-349.62 358.11,-343.34"/>
</g>
<!-- NodeUpdate&#45;&gt;upsertAllocsImpl -->
<g id="edge43" class="edge">
<title>NodeUpdate&#45;&gt;upsertAllocsImpl</title>
<path fill="none" stroke="#47841e" d="M491.09,-386.84C534.52,-374.15 604,-349.94 604,-325 604,-325 604,-325 604,-163 604,-147.33 598.02,-130.98 591.59,-117.93"/>
<polygon fill="#47841e" stroke="#47841e" points="594.67,-116.27 586.91,-109.06 588.48,-119.54 594.67,-116.27"/>
</g>
</g>
</svg>
